<svg width="12" height="12" viewBox="0 0 12 12" fill="none" xmlns="http://www.w3.org/2000/svg">
<path d="M6 1C4.065 1 2.5 2.565 2.5 4.5C2.5 7.125 6 11 6 11C6 11 9.5 7.125 9.5 4.5C9.5 2.565 7.935 1 6 1ZM6 5.75C5.66848 5.75 5.35054 5.6183 5.11612 5.38388C4.8817 5.14946 4.75 4.83152 4.75 4.5C4.75 4.16848 4.8817 3.85054 5.11612 3.61612C5.35054 3.3817 5.66848 3.25 6 3.25C6.33152 3.25 6.64946 3.3817 6.88388 3.61612C7.1183 3.85054 7.25 4.16848 7.25 4.5C7.25 4.83152 7.1183 5.14946 6.88388 5.38388C6.64946 5.6183 6.33152 5.75 6 5.75Z" fill="#3B3D40"/>
</svg>
