<svg width="37" height="36" viewBox="0 0 37 36" fill="none" xmlns="http://www.w3.org/2000/svg">
<path fill-rule="evenodd" clip-rule="evenodd" d="M23.3116 25.9846C23.7742 25.4628 24.0707 24.8016 24.1599 24.0933L29.2136 26.463C29.461 26.5793 29.732 26.6285 30.002 26.6062C30.272 26.5838 30.5324 26.4907 30.7596 26.3351C30.9867 26.1796 31.1735 25.9666 31.3028 25.7155C31.4321 25.4644 31.4999 25.1832 31.5 24.8975V12.1025C31.4998 11.817 31.432 11.536 31.3027 11.2852C31.1735 11.0343 30.9869 10.8215 30.76 10.666C30.533 10.5104 30.2729 10.4172 30.0031 10.3947C29.7334 10.3722 29.4625 10.4211 29.2153 10.537L24.1599 12.9067C24.0566 12.0821 23.6728 11.3252 23.08 10.777C22.4872 10.2287 21.7258 9.92651 20.9375 9.92661H12.442L23.3116 25.9846ZM6.87638 10.5525C6.45089 10.8692 6.10376 11.2892 5.86424 11.7771C5.62471 12.265 5.49979 12.8065 5.5 13.356V23.644C5.5 24.5536 5.84241 25.4258 6.4519 26.069C7.0614 26.7121 7.88805 27.0734 8.75 27.0734H18.058L6.87638 10.5525ZM22.7136 31L6.46363 6.99451L7.78638 6L24.0364 30.0055L22.7136 31Z" fill="#CCD2D8"/>
</svg>
