<svg width="138" height="98" viewBox="0 0 138 98" fill="none" xmlns="http://www.w3.org/2000/svg">
<path d="M65.6054 -7.60169C95.8305 42.3384 114.525 61.7287 141.163 88.7871L141.383 89.0098L165.447 80.8794C165.453 80.8802 165.46 80.8812 165.466 80.8821C165.557 80.8942 165.69 80.9121 165.861 80.9342C166.204 80.9783 166.703 81.0399 167.325 81.1107C168.569 81.2523 170.31 81.4304 172.297 81.5759C176.261 81.8663 181.239 82.0301 185.208 81.506C187.186 81.2448 188.963 80.8073 190.243 80.0955C191.538 79.3754 192.403 78.3205 192.327 76.8515C192.254 75.4536 191.327 73.8244 189.485 71.9115C187.626 69.9821 184.765 67.6917 180.669 64.9718C148.076 43.3299 116.641 8.26702 96.059 -18.1796L95.8417 -18.4598L65.2829 -8.13494L65.6054 -7.60169ZM136.836 69.826L140.883 73.2673L135.992 74.9188L132.52 71.2842L136.836 69.826ZM167.595 63.4381L161.911 65.3586L158.439 61.7241L163.547 59.9961L167.595 63.4381ZM129.122 62.1749L133.17 65.6169L128.279 67.2674L124.807 63.6328L129.122 62.1749ZM158.866 56.2927L153.976 57.9441L150.504 54.3096L154.819 52.8517L158.866 56.2927ZM126.031 57.7714L121.14 59.4228L117.669 55.788L121.984 54.3291L126.031 57.7714ZM150.578 48.8367L145.687 50.4881L142.215 46.8536L146.531 45.3954L150.578 48.8367ZM115.133 46.3874L118.893 49.9238L114.577 51.382L110.818 47.8453L115.133 46.3874ZM142.289 41.3779L137.973 42.8371L134.214 39.2994L138.529 37.8415L142.289 41.3779ZM134.575 33.7278L130.26 35.1857L126.5 31.6493L130.816 30.1902L134.575 33.7278ZM107.801 37.967L111.561 41.5035L107.245 42.9617L103.486 39.425L107.801 37.967ZM101.527 29.8296L105.192 34.0409L101.165 35.4006L97.4983 31.1906L101.527 29.8296ZM126.959 26.3651L122.931 27.7258L119.265 23.5158L123.293 22.1548L126.959 26.3651ZM119.82 18.5196L116.08 19.7831L113.087 15.6664L116.827 14.4026L119.82 18.5196ZM95.3454 21.0204L98.3383 25.1374L94.5987 26.4009L91.6049 22.2842L95.3454 21.0204ZM113.258 10.4803L109.518 11.7438L106.524 7.6271L110.265 6.36331L113.258 10.4803ZM89.552 13.3615L92.5458 17.4783L88.8052 18.7421L85.8124 14.625L89.552 13.3615ZM106.696 2.44103L102.956 3.70451L99.962 -0.413117L103.702 -1.6766L106.696 2.44103ZM83.3709 4.55236L86.3637 8.66938L82.6242 9.93286L79.6304 5.81616L83.3709 4.55236ZM77.8642 -3.20342L80.858 0.913289L77.1184 2.17677L74.1246 -1.93993L77.8642 -3.20342ZM100.323 -5.98382L96.5833 -4.72034L93.5895 -8.83705L97.33 -10.1008L100.323 -5.98382Z" fill="url(#paint0_linear_602_1624)"/>
<path d="M93.167 -7.39185C80.5174 49.5957 69.0131 73.9496 52.4375 108.111L52.3008 108.392H26.9004C26.8947 108.395 26.8889 108.398 26.8828 108.401C26.8013 108.442 26.6809 108.501 26.5254 108.577C26.2144 108.729 25.762 108.946 25.1953 109.213C24.0618 109.745 22.4694 110.471 20.6338 111.245C16.9709 112.789 12.3071 114.538 8.37988 115.311C6.42225 115.697 4.59876 115.851 3.1582 115.587C1.70092 115.319 0.543763 114.597 0.145508 113.18C-0.233278 111.833 0.123447 109.993 1.25684 107.591C2.40002 105.168 4.37768 102.082 7.3877 98.1941C31.3381 67.2582 49.8957 23.9781 60.9297 -7.66528L61.0459 -8.00024H93.3018L93.167 -7.39185ZM19.2832 91.5564H25.2832L27.4092 87.0017L22.0166 86.9998L19.2832 91.5564ZM27.999 77.4373L25.2656 81.9939L30.4277 81.9919L32.5537 77.4373H27.999ZM30.7314 72.2761L35.8936 72.2751L38.0195 67.7205L33.4648 67.7195L30.7314 72.2761ZM38.627 58.0027L36.1973 62.5564L40.752 62.5574L43.1816 58.0027H38.627ZM43.4863 48.2859L41.0566 52.8396H45.6113L48.041 48.2859H43.4863ZM48.04 38.2644L45.915 43.4265H50.166L52.292 38.2644H48.04ZM51.6846 28.8503L50.166 33.7097H54.1143L55.6318 28.8503H51.6846ZM55.3291 19.1335L53.8105 23.9919H57.7578L59.2764 19.1335H55.3291ZM58.9727 9.41577L57.4541 14.2751H61.4014L62.9199 9.41577H58.9727ZM62.3135 -0.604736L60.7949 4.25366H64.7422L66.2607 -0.604736H62.3135Z" fill="url(#paint1_linear_602_1624)"/>
<path d="M55.5723 88.0632L53.4463 92.6179L48.2842 92.6189L51.0176 88.0623L55.5723 88.0632ZM58.3047 82.9001L53.1426 82.9021L55.876 78.3455H60.4307L58.3047 82.9001ZM62.5566 73.1833L57.3945 73.1843L60.1279 68.6287H64.6826L62.5566 73.1833ZM66.2002 63.4656L61.6455 63.4646L64.0752 58.9109H68.6299L66.2002 63.4656ZM70.4521 53.1404H65.8965L68.3262 48.5867H72.8809L70.4521 53.1404ZM73.792 44.031L69.541 44.032L71.667 38.8689H75.918L73.792 44.031ZM77.1318 33.4031H73.1846L74.7031 28.5447H78.6504L77.1318 33.4031ZM80.1689 24.2927H76.2217L77.7402 19.4343H81.6875L80.1689 24.2927ZM83.2061 13.9685H79.2578L80.7764 9.11011H84.7236L83.2061 13.9685ZM85.9385 4.85815H81.9912L83.5098 -0.000244141H87.457L85.9385 4.85815Z" fill="white"/>
<defs>
<linearGradient id="paint0_linear_602_1624" x1="109.479" y1="-23.0675" x2="149.081" y2="94.1422" gradientUnits="userSpaceOnUse">
<stop stop-color="#F12E16"/>
<stop offset="1" stop-color="#FFCDC2"/>
</linearGradient>
<linearGradient id="paint1_linear_602_1624" x1="46.6509" y1="-8.00024" x2="46.6509" y2="115.719" gradientUnits="userSpaceOnUse">
<stop stop-color="#FFCDC2"/>
<stop offset="1" stop-color="#FF5641"/>
</linearGradient>
</defs>
</svg>
