<svg width="226" height="178" viewBox="0 0 226 178" fill="none" xmlns="http://www.w3.org/2000/svg">
<path d="M161.778 82.4899L222.66 115.355C192.923 134.393 179.984 147.061 162.559 172.601L104.034 136.838C122.58 108.272 135.126 95.6454 161.778 82.4899Z" fill="url(#paint0_linear_666_5013)"/>
<path d="M144.828 82.8755L73.9853 73.5709L73.9523 73.5673L73.9426 73.567C73.9358 73.5665 73.9257 73.5658 73.9123 73.5648C73.8843 73.5628 73.8414 73.5596 73.7861 73.5553C73.6755 73.5466 73.5114 73.5333 73.3002 73.5141C72.8771 73.4755 72.264 73.4134 71.5072 73.3208C69.9929 73.1355 67.9064 72.8269 65.6176 72.3344C61.0123 71.3436 55.6921 69.6286 52.5115 66.7531C50.1079 64.5798 47.8174 62.2106 45.5381 59.8753C43.2637 57.5452 40.9988 55.2484 38.6671 53.2476C34.006 49.248 29.0015 46.3653 22.9617 46.7532C18.7445 47.0241 14.6982 48.9182 11.6791 51.7373C8.66043 54.556 6.63771 58.3297 6.5306 62.3777C6.31945 70.3638 12.2195 78.6667 20.6869 79.52C30.2372 80.4825 43.0727 80.7336 53.5078 80.7449C58.728 80.7505 63.3525 80.6957 66.6719 80.6399C68.3316 80.612 69.6656 80.5846 70.5844 80.5633C71.0437 80.5527 71.3997 80.5437 71.6406 80.5374C71.7086 80.5357 71.7675 80.5344 71.8169 80.5331L78.5897 86.2526L78.7376 86.3774L78.9313 86.3701L144.781 83.8711L144.828 82.8755ZM34.029 71.241C29.8213 75.2314 21.1744 75.8518 17.0457 71.4983C12.9163 67.1453 11.3097 61.0889 17.4765 55.2405C21.6842 51.2502 30.432 52.1893 34.4224 56.397C38.4128 60.6046 38.2366 67.2505 34.029 71.241Z" fill="url(#paint1_linear_666_5013)"/>
<path d="M60.2719 80.2622L60.9233 71.5032L60.953 71.113L60.5812 70.9905C57.4949 69.9785 54.5554 68.6025 52.5105 66.7536C50.1069 64.5803 47.8164 62.2111 45.537 59.8758C43.2628 57.5459 40.9983 55.2496 38.6667 53.2488C34.0055 49.2491 29.0006 46.3659 22.9607 46.7538C18.7435 47.0247 14.6972 48.9188 11.6781 51.7378C8.65939 54.5565 6.63669 58.3302 6.52957 62.3782C6.31828 70.3644 12.2184 78.6671 20.6859 79.5206C32.2605 80.687 48.665 80.8086 59.7775 80.7244L60.2376 80.7214L60.2719 80.2622ZM34.028 71.2415C29.8203 75.2319 21.1734 75.8523 17.0446 71.4988C12.9153 67.1459 11.3087 61.0894 17.4755 55.241C21.6832 51.2508 30.4309 52.1899 34.4214 56.3975C38.4118 60.6051 38.2356 67.2511 34.028 71.2415Z" fill="#FF4924"/>
<path d="M150.686 24.5254C175.086 39.6041 185.983 52.8838 201.186 82.0254L141.686 111.025C127.283 84.8938 116.011 71.5389 89.1855 50.5254L150.686 24.5254ZM152.402 45.3213L130.258 47.1777C128.747 47.3047 127.921 49.0012 128.754 50.2686L139.802 67.0771L133.123 71.4668C132.662 71.7703 132.534 72.3903 132.837 72.8516L135.423 76.7861C135.726 77.2472 136.346 77.3752 136.808 77.0723L142.254 73.4932L144.331 84.9521C144.43 85.4952 144.95 85.8551 145.493 85.7568L148.447 85.2217C148.991 85.1232 149.351 84.6029 149.253 84.0596L146.797 70.5068L158.986 62.4951L170.454 70.127C170.914 70.4325 171.534 70.3072 171.84 69.8477L173.504 67.3477C173.81 66.8879 173.684 66.2669 173.225 65.9609L163.529 59.5098L168.77 56.0654C169.231 55.7621 169.359 55.1421 169.056 54.6807L166.47 50.7461C166.166 50.2847 165.546 50.1566 165.085 50.46L146.676 62.5596L154.332 48.2578C155.08 46.8598 153.982 45.1889 152.402 45.3213Z" fill="url(#paint2_linear_666_5013)"/>
<path d="M137.178 49.6548L76.8668 87.9672L76.8383 87.9844L76.8297 87.9887C76.8237 87.992 76.8146 87.9971 76.8031 88.0035C76.7786 88.0171 76.7408 88.0383 76.6927 88.0654C76.596 88.1199 76.4527 88.2013 76.2695 88.3077C75.9021 88.5211 75.3722 88.836 74.7253 89.239C73.4304 90.0457 71.6685 91.2055 69.8009 92.6172C66.0431 95.4578 61.9423 99.2564 60.2711 103.205C59.0083 106.189 57.9305 109.303 56.8485 112.382C55.769 115.454 54.6839 118.492 53.4135 121.289C50.8738 126.881 47.5517 131.606 41.9118 133.801C37.9738 135.334 33.506 135.323 29.5797 134.04C25.6539 132.757 22.2284 130.188 20.4242 126.563C16.8647 119.411 18.7132 109.395 26.0308 105.05C34.2844 100.15 45.8168 94.509 55.2738 90.0981C60.0046 87.8916 64.2211 85.991 67.2544 84.6417C68.7709 83.9672 69.9922 83.4294 70.8343 83.0612C71.255 82.8773 71.5818 82.7352 71.8029 82.6393C71.8651 82.6123 71.9192 82.5885 71.9645 82.5688L75.6935 74.5266L75.7751 74.351L75.9537 74.276L136.716 48.7717L137.178 49.6548ZM41.6189 106.93C36.1209 105.086 28.0189 108.17 26.1112 113.859C24.2028 119.547 25.3003 125.716 33.3581 128.418C38.856 130.262 46.3917 125.721 48.2356 120.223C50.0794 114.725 47.117 108.774 41.6189 106.93Z" fill="#FFC1AC"/>
<path d="M61.6127 87.6823L65.8972 95.3497L66.0887 95.6909L65.8032 95.9588C63.4315 98.178 61.3466 100.665 60.2721 103.204C59.0092 106.188 57.9315 109.302 56.8495 112.381C55.77 115.453 54.6851 118.49 53.4148 121.287C50.8751 126.88 47.5528 131.605 41.9128 133.8C37.9748 135.333 33.5069 135.322 29.5807 134.039C25.6549 132.756 22.2294 130.188 20.4251 126.562C16.8656 119.41 18.7139 109.394 26.0318 105.049C36.0349 99.1101 50.8581 92.0817 60.9695 87.4718L61.388 87.2804L61.6127 87.6823ZM41.6208 106.929C36.1228 105.085 28.0208 108.169 26.1131 113.858C24.2047 119.546 25.3021 125.716 33.36 128.418C38.8579 130.261 46.3936 125.721 48.2375 120.223C50.0813 114.725 47.1188 108.773 41.6208 106.929Z" fill="#FF4924"/>
<circle cx="79.1846" cy="79.5254" r="3" fill="white"/>
<defs>
<linearGradient id="paint0_linear_666_5013" x1="219.615" y1="114.544" x2="103.985" y2="137.354" gradientUnits="userSpaceOnUse">
<stop stop-color="#E0E6F5"/>
<stop offset="1" stop-color="#9DB6EE"/>
</linearGradient>
<linearGradient id="paint1_linear_666_5013" x1="144.969" y1="84.0202" x2="60.5012" y2="72.785" gradientUnits="userSpaceOnUse">
<stop stop-color="#FFC1AC"/>
<stop offset="0.639646" stop-color="#FF774A"/>
<stop offset="1" stop-color="#FFC1AC"/>
</linearGradient>
<linearGradient id="paint2_linear_666_5013" x1="85.8463" y1="50.0254" x2="200.069" y2="86.0632" gradientUnits="userSpaceOnUse">
<stop stop-color="#F1F5FF"/>
<stop offset="1" stop-color="#C3D5FF"/>
</linearGradient>
</defs>
</svg>
