<svg width="40" height="40" viewBox="0 0 40 40" fill="none" xmlns="http://www.w3.org/2000/svg">
<path d="M8.62109 2.82324C8.62109 1.31995 10.2172 0.354219 11.5488 1.05176L29.1348 10.2637C30.564 11.0124 30.5641 13.058 29.1348 13.8066L15.1377 21.1387H37.207C37.7592 21.1388 38.207 21.5865 38.207 22.1387V25.8281C38.207 26.3803 37.7592 26.828 37.207 26.8281H31.6699L35.8467 36.6484C36.0628 37.1566 35.8265 37.7438 35.3184 37.96L32.9707 38.959C32.4625 39.1752 31.8744 38.9379 31.6582 38.4297L26.7246 26.8281H13.5713C13.5591 26.8747 13.5438 26.9212 13.5244 26.9668L8.64941 38.4297C8.43325 38.9379 7.84514 39.1752 7.33691 38.959L4.98926 37.96C4.48111 37.7438 4.24383 37.1566 4.45996 36.6484L8.6377 26.8281H2.79297C2.24083 26.828 1.79304 26.3803 1.79297 25.8281V22.1387C1.79297 21.5865 2.24078 21.1388 2.79297 21.1387H8.62109V2.82324Z" fill="#FA502E"/>
</svg>
