<svg width="111" height="110" viewBox="0 0 111 110" fill="none" xmlns="http://www.w3.org/2000/svg">
<path d="M22.9844 5.00684C22.9845 1.24869 26.9756 -1.16567 30.3047 0.578125L82.7246 28.0361C86.2979 29.9079 86.2979 35.0228 82.7246 36.8945L41.584 58.4443H103.418C105.627 58.4445 107.418 60.2354 107.418 62.4443V70.6816C107.418 72.8906 105.627 74.6814 103.418 74.6816H88.7627L100.235 101.653C101.1 103.686 100.153 106.035 98.1201 106.899L93.5283 108.853C91.4954 109.717 89.1459 108.77 88.2812 106.737L74.6475 74.6816H36.8486C36.8348 75.1672 36.7329 75.6588 36.5312 76.1328L23.5137 106.737C22.6489 108.77 20.3004 109.717 18.2676 108.853L13.6758 106.899C11.6432 106.035 10.6962 103.686 11.5605 101.653L23.0322 74.6816H7.5C5.29107 74.6814 3.50007 72.8906 3.5 70.6816V62.4443C3.50006 60.2354 5.29107 58.4445 7.5 58.4443H22.9844V5.00684Z" fill="url(#paint0_linear_196_765)"/>
<defs>
<linearGradient id="paint0_linear_196_765" x1="3" y1="-2.9622e-07" x2="107" y2="109" gradientUnits="userSpaceOnUse">
<stop stop-color="#FFDAC0"/>
<stop offset="1" stop-color="#F41E07"/>
</linearGradient>
</defs>
</svg>
