<svg width="111" height="110" viewBox="0 0 111 110" fill="none" xmlns="http://www.w3.org/2000/svg">
<g clip-path="url(#clip0_196_765)">
<path d="M22.9844 5.00684C22.9844 1.24872 26.9756 -1.16637 30.3047 0.577148L82.7246 28.0361C86.2979 29.9079 86.2979 35.0218 82.7246 36.8936L41.584 58.4443H103.418C105.627 58.4445 107.418 60.2353 107.418 62.4443V70.6816C107.418 72.8905 105.627 74.6814 103.418 74.6816H88.7627L100.235 101.652C101.1 103.685 100.153 106.035 98.1201 106.899L93.5283 108.853C91.4955 109.717 89.146 108.77 88.2812 106.737L74.6475 74.6816H36.8486C36.8348 75.167 36.7328 75.658 36.5312 76.1318L23.5137 106.737C22.6489 108.77 20.3003 109.717 18.2676 108.853L13.6758 106.899C11.643 106.035 10.6959 103.685 11.5605 101.652L23.0322 74.6816H7.5C5.29116 74.6814 3.50021 72.8905 3.5 70.6816V62.4443C3.5 60.2353 5.29103 58.4445 7.5 58.4443H22.9844V5.00684Z" fill="#FA502E"/>
</g>
<defs>
<clipPath id="clip0_196_765">
<rect width="110" height="110" fill="white" transform="translate(0.5)"/>
</clipPath>
</defs>
</svg>
