<svg width="102" height="108" viewBox="0 0 102 108" fill="none" xmlns="http://www.w3.org/2000/svg">
<path d="M25.5001 5.40801C25.5002 1.35696 29.7806 -1.25189 33.3642 0.614915L82.5988 26.2631C86.4687 28.2793 86.4687 33.8338 82.5988 35.8501L40.2332 57.9199H96.6165C99.5897 57.9199 102 60.3381 102 63.3211V70.4276C102 73.4106 99.5897 75.8288 96.6165 75.8288H84.2922L94.4362 99.7561C95.5998 102.501 94.3255 105.673 91.5891 106.84L89.8841 107.568C87.1478 108.735 83.9862 107.457 82.8226 104.711L70.5783 75.8288H32.9669C32.9333 76.4375 32.7964 77.0502 32.5449 77.6436L21.0697 104.711C19.906 107.457 16.7444 108.735 14.0084 107.568L12.3027 106.84C9.56679 105.673 8.29261 102.501 9.45636 99.7561L19.5999 75.8288H5.38346C2.41025 75.8288 0 73.4106 0 70.4276V63.3211C0 60.3381 2.41025 57.9199 5.38346 57.9199H25.6337C25.5466 57.5326 25.5001 57.1267 25.5001 56.7054V5.40801Z" fill="#DEE2E6"/>
</svg>
