<svg width="24" height="24" viewBox="0 0 24 24" fill="none" xmlns="http://www.w3.org/2000/svg">
<path d="M17.6569 6.34338C18.0039 6.69046 18.0038 7.253 17.6569 7.60015L13.2568 12.0002L17.6569 16.4003C18.0038 16.7475 18.0039 17.31 17.6569 17.6571C17.3098 18.0042 16.7472 18.0041 16.4001 17.6571L12 13.257L7.59992 17.6571C7.25277 18.0041 6.69023 18.0042 6.34315 17.6571C5.99606 17.31 5.99617 16.7475 6.34315 16.4003L10.7432 12.0002L6.34315 7.60015C5.99617 7.253 5.99606 6.69046 6.34315 6.34338C6.69023 5.9963 7.25277 5.9964 7.59992 6.34338L12 10.7435L16.4001 6.34338C16.7472 5.9964 17.3098 5.9963 17.6569 6.34338Z" fill="#3B3D40"/>
</svg>
