<svg width="96" height="111" viewBox="0 0 96 111" fill="none" xmlns="http://www.w3.org/2000/svg">
<circle cx="6" cy="6" r="6" transform="matrix(-1 0 0 1 32 40)" fill="#FFB6B6"/>
<circle cx="48" cy="38" r="23" fill="#FFDBDB"/>
<path d="M71 38C71 38 42.5 28.5 40.5 23.5C40.5 41 25 38 25 38C25 25.2975 35.2974 15 48 15C60.7025 15 71 25.2975 71 38Z" fill="#191D1F"/>
<rect x="42" y="56" width="12" height="14" fill="#FFDBDB"/>
<rect x="42" y="64" width="12" height="6" fill="white"/>
<path d="M0 117.154C0 114.589 0.61675 112.061 1.79825 109.785L19.5215 75.6305C22.273 70.328 27.7494 67 33.7232 67H48H62.2768C68.2506 67 73.727 70.328 76.4785 75.6304L94.2018 109.785C95.3833 112.061 96 114.589 96 117.154V125C96 133.837 88.8366 141 80 141H16C7.16345 141 0 133.837 0 125V117.154Z" fill="white"/>
<path d="M58 37.5C58 38.8807 57.3284 40 56.5 40C55.6716 40 55 38.8807 55 37.5C55 36.1193 55.6716 35 56.5 35C57.3284 35 58 36.1193 58 37.5Z" fill="#191D1F"/>
<path d="M48 37.5C48 38.8807 47.3284 40 46.5 40C45.6716 40 45 38.8807 45 37.5C45 36.1193 45.6716 35 46.5 35C47.3284 35 48 36.1193 48 37.5Z" fill="#191D1F"/>
<path d="M49 45H55V48C55 49.6569 53.6569 51 52 51C50.3431 51 49 49.6569 49 48V45Z" fill="#FF7070"/>
<rect x="23.7516" y="23.6287" width="17.7504" height="5.3925" rx="1" transform="rotate(-41.586 23.7516 23.6287)" fill="#79B8F7"/>
<path d="M31 0C34.3137 0 37 2.68629 37 6C37 7.65015 36.3329 9.14379 35.2549 10.2285L36.1924 11.2852C36.5589 11.6982 36.5205 12.3307 36.1074 12.6973L24.3271 23.1514C23.9141 23.5179 23.2816 23.4805 22.915 23.0674L22.21 22.2725C21.1267 23.3399 19.641 24 18 24C14.6863 24 12 21.3137 12 18C12 15.7918 13.1933 13.863 14.9697 12.8213C14.3513 11.6859 14 10.3839 14 9C14 4.58172 17.5817 1 22 1C23.5869 1 25.0647 1.46385 26.3086 2.26074C27.408 0.883232 29.1005 0 31 0Z" fill="white"/>
<circle cx="57" cy="80" r="3" fill="#191D1F"/>
<circle cx="57" cy="91" r="3" fill="#191D1F"/>
<circle cx="57" cy="102" r="3" fill="#191D1F"/>
</svg>
