<svg width="96" height="96" viewBox="0 0 96 96" fill="none" xmlns="http://www.w3.org/2000/svg">
<rect x="25" y="23" width="46" height="34" fill="#191D1F"/>
<circle cx="6" cy="6" r="6" transform="matrix(-1 0 0 1 32 25)" fill="#FFB6B6"/>
<circle cx="48" cy="23" r="23" fill="#FFDBDB"/>
<path d="M71 23C71 23 42.5 13.5 40.5 8.5C40.5 26 25 23 25 23C25 10.2975 35.2974 0 48 0C60.7025 0 71 10.2975 71 23Z" fill="#191D1F"/>
<rect x="42" y="41" width="12" height="14" fill="#FFDBDB"/>
<path d="M0 102.154C0 99.589 0.61675 97.0615 1.79825 94.7846L19.5215 60.6305C22.273 55.328 27.7494 52 33.7232 52H48H62.2768C68.2506 52 73.727 55.328 76.4785 60.6304L94.2018 94.7846C95.3833 97.0615 96 99.589 96 102.154V110C96 118.837 88.8366 126 80 126H16C7.16345 126 0 118.837 0 110V102.154Z" fill="#92A5BE"/>
<path d="M58 22.5C58 23.8807 57.3284 25 56.5 25C55.6716 25 55 23.8807 55 22.5C55 21.1193 55.6716 20 56.5 20C57.3284 20 58 21.1193 58 22.5Z" fill="#191D1F"/>
<path d="M48 22.5C48 23.8807 47.3284 25 46.5 25C45.6716 25 45 23.8807 45 22.5C45 21.1193 45.6716 20 46.5 20C47.3284 20 48 21.1193 48 22.5Z" fill="#191D1F"/>
<path d="M49 30H55V33C55 34.6569 53.6569 36 52 36C50.3431 36 49 34.6569 49 33V30Z" fill="#FF7070"/>
<rect x="53" y="68" width="19" height="3" fill="#EEF5FF"/>
<path d="M54 71H71V79C71 81.2091 69.2091 83 67 83H58C55.7909 83 54 81.2091 54 79V71Z" fill="#5D7594"/>
</svg>
