<svg width="16" height="16" viewBox="0 0 16 16" fill="none" xmlns="http://www.w3.org/2000/svg">
<path d="M8.7 5.9H7.3V4.5H8.7M8.7 11.5H7.3V7.3H8.7M8 1C7.08075 1 6.17049 1.18106 5.32122 1.53284C4.47194 1.88463 3.70026 2.40024 3.05025 3.05025C1.7375 4.36301 1 6.14348 1 8C1 9.85652 1.7375 11.637 3.05025 12.9497C3.70026 13.5998 4.47194 14.1154 5.32122 14.4672C6.17049 14.8189 7.08075 15 8 15C9.85652 15 11.637 14.2625 12.9497 12.9497C14.2625 11.637 15 9.85652 15 8C15 7.08075 14.8189 6.17049 14.4672 5.32122C14.1154 4.47194 13.5998 3.70026 12.9497 3.05025C12.2997 2.40024 11.5281 1.88463 10.6788 1.53284C9.8295 1.18106 8.91925 1 8 1Z" fill="#B5BBC1"/>
</svg>
