<svg width="18" height="18" viewBox="0 0 18 18" fill="none" xmlns="http://www.w3.org/2000/svg">
<g clip-path="url(#clip0_930_5068)">
<path fill-rule="evenodd" clip-rule="evenodd" d="M0 1.92857C0 1.41708 0.203188 0.926543 0.564865 0.564865C0.926543 0.203188 1.41708 0 1.92857 0L10.9286 0C11.4401 0 11.9306 0.203188 12.2923 0.564865C12.654 0.926543 12.8571 1.41708 12.8571 1.92857V4.42157C12.8571 5.14286 12.8571 5.14286 12.8571 6.10714H7.39286C7.01296 6.10714 6.63679 6.18197 6.28581 6.32735C5.93483 6.47273 5.61592 6.68581 5.3473 6.95444C5.07867 7.22307 4.86559 7.54197 4.72021 7.89295C4.57483 8.24393 4.5 8.6201 4.5 9C4.5 9.3799 4.57483 9.75607 4.72021 10.107C4.86559 10.458 5.07867 10.7769 5.3473 11.0456C5.61592 11.3142 5.93483 11.5273 6.28581 11.6727C6.63679 11.818 7.01296 11.8929 7.39286 11.8929H12.8571C12.8571 12.5164 12.8571 12.8571 12.8571 13.5784V16.0714C12.8571 16.5829 12.654 17.0735 12.2923 17.4351C11.9306 17.7968 11.4401 18 10.9286 18H1.92857C1.41708 18 0.926543 17.7968 0.564865 17.4351C0.203188 17.0735 0 16.5829 0 16.0714L0 1.92857ZM14.0953 5.53757C13.9191 5.61056 13.7684 5.73417 13.6625 5.89277C13.5565 6.05137 13.5 6.23783 13.5 6.42857V7.71429H7.39286C7.05186 7.71429 6.72484 7.84974 6.48372 8.09086C6.2426 8.33198 6.10714 8.65901 6.10714 9C6.10714 9.34099 6.2426 9.66802 6.48372 9.90914C6.72484 10.1503 7.05186 10.2857 7.39286 10.2857H13.5V11.5714C13.5002 11.762 13.5568 11.9483 13.6628 12.1067C13.7688 12.2651 13.9193 12.3886 14.0954 12.4615C14.2715 12.5344 14.4652 12.5535 14.6522 12.5164C14.8391 12.4792 15.0109 12.3875 15.1457 12.2529L17.7171 9.68143C17.8977 9.50062 17.9992 9.25554 17.9992 9C17.9992 8.74446 17.8977 8.49938 17.7171 8.31857L15.1457 5.74714C15.011 5.61228 14.8392 5.5204 14.6523 5.48309C14.4653 5.44579 14.2715 5.46475 14.0953 5.53757Z" fill="#B5BBC1"/>
</g>
<defs>
<clipPath id="clip0_930_5068">
<rect width="18" height="18" fill="white"/>
</clipPath>
</defs>
</svg>
