<svg width="24" height="24" viewBox="0 0 24 24" fill="none" xmlns="http://www.w3.org/2000/svg">
<path d="M18.3278 18.3018V20.1C18.3278 20.3204 18.2465 20.5332 18.0993 20.6979C17.9522 20.8627 17.7495 20.9679 17.5296 20.9937L17.4238 21H6.57572C6.33596 21 6.10602 20.9052 5.93649 20.7364C5.76695 20.5676 5.67171 20.3387 5.67171 20.1V18.3054C5.67171 18.0667 5.76695 17.8378 5.93649 17.669C6.10602 17.5002 6.33596 17.4054 6.57572 17.4054L17.4238 17.4018C17.6635 17.4018 17.8935 17.4966 18.063 17.6654C18.2326 17.8342 18.3278 18.0631 18.3278 18.3018ZM11.9998 3C12.8605 2.99984 13.7034 3.24435 14.4293 3.7048C15.1553 4.16524 15.734 4.82247 16.0976 5.5992L16.1519 5.7225L16.2748 5.7144C17.2677 5.66968 18.2477 5.95201 19.0632 6.51771C19.8786 7.0834 20.4841 7.9009 20.7858 8.8437L20.8427 9.0354C21.1204 10.0558 21.0283 11.141 20.5827 12.1006C20.137 13.0602 19.3663 13.8329 18.4055 14.2833L18.3269 14.3166V15.6018C18.3269 15.8405 18.2316 16.0694 18.0621 16.2382C17.8926 16.407 17.6626 16.5018 17.4229 16.5018L6.57481 16.5054C6.35339 16.5054 6.13968 16.4244 5.97422 16.278C5.80875 16.1315 5.70304 15.9296 5.67714 15.7107L5.67081 15.6054V14.3157L5.55961 14.2662C5.00334 13.9997 4.5078 13.6225 4.10356 13.158C3.69932 12.6935 3.39494 12.1514 3.2092 11.5653L3.15134 11.3646C2.96659 10.6718 2.95075 9.94509 3.10514 9.24496C3.25952 8.54484 3.57967 7.89156 4.03893 7.33952C4.49818 6.78747 5.08325 6.35264 5.74543 6.07122C6.40761 5.7898 7.12773 5.66993 7.84585 5.7216L7.90551 5.5938C8.25481 4.85007 8.80184 4.21564 9.48735 3.75924C10.1729 3.30283 10.9707 3.04183 11.7945 3.0045L11.9998 3Z" fill="#B5BBC1"/>
</svg>
