<svg width="24" height="24" viewBox="0 0 24 24" fill="none" xmlns="http://www.w3.org/2000/svg">
<path fill-rule="evenodd" clip-rule="evenodd" d="M4.8 11.4322C3.836 11.4322 3.0028 10.6047 3 9.51778L3.0016 9.49267C3.00293 9.4653 3.008 9.41415 3.0168 9.33921C3.0352 9.18814 3.074 8.93783 3.1552 8.56594C3.3176 7.82137 3.6476 6.59531 4.3172 4.70917C4.5924 3.93312 5.234 3.39861 6.0092 3.3157C9.9919 2.89477 14.0081 2.89477 17.9908 3.3157C18.766 3.39861 19.4076 3.93351 19.6828 4.70917C20.3524 6.59531 20.6828 7.82137 20.8448 8.56594C20.926 8.93783 20.9648 9.18814 20.9832 9.33921C20.9907 9.39854 20.9963 9.45809 21 9.51778C20.9972 10.6047 20.164 11.4322 19.2 11.4322C18.2344 11.4322 17.4 10.6019 17.4 9.5126C17.4 9.35403 17.3368 9.20195 17.2243 9.08983C17.1117 8.9777 16.9591 8.91471 16.8 8.91471C16.6409 8.91471 16.4883 8.9777 16.3757 9.08983C16.2632 9.20195 16.2 9.35403 16.2 9.5126C16.2 10.6019 15.3656 11.4322 14.4 11.4322C13.4344 11.4322 12.6 10.6019 12.6 9.5126C12.6 9.35403 12.5368 9.20195 12.4243 9.08983C12.3117 8.9777 12.1591 8.91471 12 8.91471C11.8409 8.91471 11.6883 8.9777 11.5757 9.08983C11.4632 9.20195 11.4 9.35403 11.4 9.5126C11.4 10.6019 10.5656 11.4322 9.6 11.4322C8.6344 11.4322 7.8 10.6019 7.8 9.5126C7.8 9.35403 7.73679 9.20195 7.62426 9.08983C7.51174 8.9777 7.35913 8.91471 7.2 8.91471C7.04087 8.91471 6.88826 8.9777 6.77574 9.08983C6.66321 9.20195 6.6 9.35403 6.6 9.5126C6.6 10.6019 5.7656 11.4322 4.8 11.4322ZM3.7696 12.4422V14.4232C3.7696 16.2117 3.8416 17.551 3.9228 18.4905C4.0364 19.809 5.0868 20.7756 6.3868 20.8549C7.5752 20.9275 9.4052 21 11.9696 21C14.5336 21 16.364 20.9275 17.5524 20.8549C18.8524 20.7752 19.9028 19.809 20.0164 18.4905C20.0976 17.551 20.1696 16.2117 20.1696 14.4232V12.4646C19.8583 12.5747 19.5303 12.6307 19.2 12.63C18.2068 12.63 17.3428 12.1357 16.8 11.3832C16.2576 12.1353 15.3932 12.63 14.4 12.63C13.4068 12.63 12.5428 12.1357 12 11.3832C11.4576 12.1353 10.5932 12.63 9.6 12.63C8.6068 12.63 7.7428 12.1357 7.2 11.3832C6.6576 12.1353 5.7932 12.63 4.8 12.63C4.4479 12.6307 4.09866 12.5671 3.7696 12.4422ZM11.9696 15.0211C11.0404 15.0211 10.398 15.0889 9.9696 15.1654C9.6792 15.2172 9.4568 15.4564 9.4332 15.8749C9.4 16.466 9.3696 17.3947 9.3696 18.8077C9.3696 19.1266 9.6256 19.3841 9.9372 19.3893C10.5537 19.3999 11.2312 19.4054 11.9696 19.4056C12.7083 19.4054 13.3857 19.3999 14.002 19.3893C14.1541 19.3855 14.2987 19.3226 14.4048 19.2139C14.5109 19.1052 14.5701 18.9594 14.5696 18.8077C14.5696 17.3947 14.5392 16.466 14.506 15.8749C14.4828 15.4564 14.26 15.2172 13.97 15.1654C13.5412 15.0889 12.8988 15.0211 11.9696 15.0211Z" fill="#B5BBC1"/>
</svg>
