<svg width="17" height="13" viewBox="0 0 17 13" fill="none" xmlns="http://www.w3.org/2000/svg">
<path d="M16.2102 2.34868C16.0369 2.32866 15.8615 2.35976 15.7056 2.43816L11.6318 4.47368V8.05263L15.7056 10.0882C15.8418 10.1562 15.9932 10.1884 16.1453 10.1816C16.2975 10.1749 16.4454 10.1294 16.575 10.0494C16.7047 9.96951 16.8118 9.85782 16.8862 9.72493C16.9606 9.59204 16.9999 9.44235 17.0003 9.29005V3.23626C17 3.01726 16.9195 2.80596 16.7738 2.64238C16.6282 2.4788 16.4277 2.3743 16.2102 2.34868Z" fill="#B5BBC1"/>
<path d="M2.68421 0C1.21237 0 0 1.21237 0 2.68421V9.8421C0 11.3139 1.21237 12.5263 2.68421 12.5263H9.8421C11.3139 12.5263 12.5263 11.3139 12.5263 9.8421V2.68421C12.5263 1.21237 11.3139 0 9.8421 0H2.68421Z" fill="#B5BBC1"/>
</svg>
