<svg width="36" height="36" viewBox="0 0 36 36" fill="none" xmlns="http://www.w3.org/2000/svg">
<path d="M10 20C11.1046 20 12 20.8954 12 22V30C12 31.1046 11.1046 32 10 32H6C4.89543 32 4 31.1046 4 30V22C4 20.8954 4.89543 20 6 20H10ZM20 4C21.1046 4 22 4.89543 22 6V30C22 31.1046 21.1046 32 20 32H16C14.8954 32 14 31.1046 14 30V6C14 4.89543 14.8954 4 16 4H20ZM30 12C31.1046 12 32 12.8954 32 14V30C32 31.1046 31.1046 32 30 32H26C24.8954 32 24 31.1046 24 30V14C24 12.8954 24.8954 12 26 12H30Z" fill="#B5BBC1"/>
</svg>
