<svg width="36" height="36" viewBox="0 0 36 36" fill="none" xmlns="http://www.w3.org/2000/svg">
<path d="M4 16.8249C4 16.2381 4.25765 15.681 4.7047 15.301L16.7047 5.101C17.4516 4.46618 18.5484 4.46617 19.2953 5.101L31.2953 15.301C31.7424 15.681 32 16.2381 32 16.8249V30C32 31.1046 31.1046 32 30 32H20.8V25.3C20.8 24.7477 20.3523 24.3 19.8 24.3H16.2C15.6477 24.3 15.2 24.7477 15.2 25.3V32H6C4.89543 32 4 31.1046 4 30V16.8249Z" fill="url(#paint0_linear_82_1218)"/>
<defs>
<linearGradient id="paint0_linear_82_1218" x1="4.5" y1="4" x2="32" y2="32" gradientUnits="userSpaceOnUse">
<stop stop-color="#FFDAC0"/>
<stop offset="1" stop-color="#F41E07"/>
</linearGradient>
</defs>
</svg>
