<svg width="36" height="36" viewBox="0 0 36 36" fill="none" xmlns="http://www.w3.org/2000/svg">
<path d="M4 11.2998C4 9.798 5.59331 8.83183 6.9248 9.52637L23.6016 18.2266C25.0347 18.9743 25.0347 21.0257 23.6016 21.7734L6.9248 30.4736C5.59331 31.1682 4 30.202 4 28.7002V11.2998ZM27 4C27.5523 4 28 4.44772 28 5V8H31C31.5523 8 32 8.44772 32 9C32 9.55228 31.5523 10 31 10H28V13C28 13.5523 27.5523 14 27 14C26.4477 14 26 13.5523 26 13V10H23C22.4477 10 22 9.55228 22 9C22 8.44772 22.4477 8 23 8H26V5C26 4.44772 26.4477 4 27 4Z" fill="#B5BBC1"/>
</svg>
