<svg width="25" height="24" viewBox="0 0 25 24" fill="none" xmlns="http://www.w3.org/2000/svg">
<g clip-path="url(#clip0_481_54)">
<path d="M5.55176 0.944336C5.55188 0.192837 6.34987 -0.290018 7.01562 0.0585938L18.8867 6.27734C19.6013 6.65172 19.6014 7.6745 18.8867 8.04883L9.65039 12.8867H23.1553C23.7074 12.8867 24.1551 13.3346 24.1553 13.8867V15.4648C24.1552 16.0171 23.7075 16.4648 23.1553 16.4648H20.0449L22.5264 22.2988C22.7424 22.807 22.5061 23.3941 21.998 23.6104L21.2041 23.9473C20.6959 24.1633 20.1087 23.9271 19.8926 23.4189L16.9346 16.4648H8.56836C8.57381 16.6075 8.54978 16.7535 8.49023 16.8936L5.71484 23.4189C5.49865 23.9271 4.91151 24.1634 4.40332 23.9473L3.60938 23.6104C3.10141 23.3941 2.86507 22.8069 3.08105 22.2988L5.5625 16.4648H2.25879C1.70652 16.4648 1.25881 16.0171 1.25879 15.4648V13.8867C1.259 13.3346 1.70664 12.8867 2.25879 12.8867H5.55176V0.944336Z" fill="#B5BBC1"/>
</g>
<defs>
<clipPath id="clip0_481_54">
<rect width="24" height="24" fill="white" transform="translate(0.5)"/>
</clipPath>
</defs>
</svg>
