<svg width="24" height="24" viewBox="0 0 24 24" fill="none" xmlns="http://www.w3.org/2000/svg">
<g clip-path="url(#clip0_196_329)">
<path d="M5.05176 0.94458C5.05188 0.193082 5.84987 -0.289773 6.51562 0.0588379L18.3867 6.27759C19.1013 6.65196 19.1014 7.67474 18.3867 8.04907L9.15039 12.887H22.6553C23.2074 12.887 23.6551 13.3349 23.6553 13.887V15.4651C23.6552 16.0174 23.2075 16.4651 22.6553 16.4651H19.5449L22.0264 22.2991C22.2424 22.8072 22.0061 23.3944 21.498 23.6106L20.7041 23.9475C20.1959 24.1636 19.6087 23.9273 19.3926 23.4192L16.4346 16.4651H8.06836C8.07381 16.6077 8.04978 16.7537 7.99023 16.8938L5.21484 23.4192C4.99865 23.9273 4.41151 24.1636 3.90332 23.9475L3.10938 23.6106C2.60141 23.3944 2.36507 22.8072 2.58105 22.2991L5.0625 16.4651H1.75879C1.20652 16.4651 0.758814 16.0174 0.758789 15.4651V13.887C0.759003 13.3349 1.20664 12.887 1.75879 12.887H5.05176V0.94458Z" fill="url(#paint0_linear_196_329)"/>
</g>
<defs>
<linearGradient id="paint0_linear_196_329" x1="1.16765" y1="-0.056396" x2="24.8131" y2="22.8317" gradientUnits="userSpaceOnUse">
<stop stop-color="#FFDAC0"/>
<stop offset="1" stop-color="#F41E07"/>
</linearGradient>
<clipPath id="clip0_196_329">
<rect width="24" height="24" fill="white"/>
</clipPath>
</defs>
</svg>
